<svg xmlns="http://www.w3.org/2000/svg" viewBox="0 0 256 256" width="256" height="256">
<title>雞蛋仔 egg waffle</title>
<g stroke-linejoin="round" stroke-linecap="round">
<ellipse cx="128" cy="226" rx="78" ry="8" fill="#1E3350" opacity="0.10"/>

<g transform="rotate(-10 128 128)">
<circle cx="86" cy="58" r="19" fill="#1E3350" stroke="#1E3350" stroke-width="16"/><circle cx="128" cy="58" r="19" fill="#1E3350" stroke="#1E3350" stroke-width="16"/><circle cx="170" cy="58" r="19" fill="#1E3350" stroke="#1E3350" stroke-width="16"/><circle cx="86" cy="98" r="19" fill="#1E3350" stroke="#1E3350" stroke-width="16"/><circle cx="128" cy="98" r="19" fill="#1E3350" stroke="#1E3350" stroke-width="16"/><circle cx="170" cy="98" r="19" fill="#1E3350" stroke="#1E3350" stroke-width="16"/><circle cx="86" cy="138" r="19" fill="#1E3350" stroke="#1E3350" stroke-width="16"/><circle cx="128" cy="138" r="19" fill="#1E3350" stroke="#1E3350" stroke-width="16"/><circle cx="170" cy="138" r="19" fill="#1E3350" stroke="#1E3350" stroke-width="16"/><circle cx="86" cy="178" r="19" fill="#1E3350" stroke="#1E3350" stroke-width="16"/><circle cx="128" cy="178" r="19" fill="#1E3350" stroke="#1E3350" stroke-width="16"/><circle cx="170" cy="178" r="19" fill="#1E3350" stroke="#1E3350" stroke-width="16"/><rect x="86" y="58" width="84" height="120" fill="#1E3350" stroke="#1E3350" stroke-width="16"/><rect x="86" y="58" width="84" height="120" fill="#E9A646"/><circle cx="86" cy="58" r="19" fill="#E9A443"/><circle cx="128" cy="58" r="19" fill="#E9A443"/><circle cx="170" cy="58" r="19" fill="#E9A443"/><circle cx="86" cy="98" r="19" fill="#E9A443"/><circle cx="128" cy="98" r="19" fill="#E9A443"/><circle cx="170" cy="98" r="19" fill="#E9A443"/><circle cx="86" cy="138" r="19" fill="#E9A443"/><circle cx="128" cy="138" r="19" fill="#E9A443"/><circle cx="170" cy="138" r="19" fill="#E9A443"/><circle cx="86" cy="178" r="19" fill="#E9A443"/><circle cx="128" cy="178" r="19" fill="#E9A443"/><circle cx="170" cy="178" r="19" fill="#E9A443"/><circle cx="83.5" cy="55.5" r="15" fill="#F9CB70"/><ellipse cx="80" cy="51" rx="5.5" ry="3.6" transform="rotate(-30 80 51)" fill="#FFE6B0"/><circle cx="125.5" cy="55.5" r="15" fill="#F9CB70"/><ellipse cx="122" cy="51" rx="5.5" ry="3.6" transform="rotate(-30 122 51)" fill="#FFE6B0"/><circle cx="167.5" cy="55.5" r="15" fill="#F9CB70"/><ellipse cx="164" cy="51" rx="5.5" ry="3.6" transform="rotate(-30 164 51)" fill="#FFE6B0"/><circle cx="83.5" cy="95.5" r="15" fill="#F9CB70"/><ellipse cx="80" cy="91" rx="5.5" ry="3.6" transform="rotate(-30 80 91)" fill="#FFE6B0"/><circle cx="125.5" cy="95.5" r="15" fill="#F9CB70"/><ellipse cx="122" cy="91" rx="5.5" ry="3.6" transform="rotate(-30 122 91)" fill="#FFE6B0"/><circle cx="167.5" cy="95.5" r="15" fill="#F9CB70"/><ellipse cx="164" cy="91" rx="5.5" ry="3.6" transform="rotate(-30 164 91)" fill="#FFE6B0"/><circle cx="83.5" cy="135.5" r="15" fill="#F9CB70"/><ellipse cx="80" cy="131" rx="5.5" ry="3.6" transform="rotate(-30 80 131)" fill="#FFE6B0"/><circle cx="125.5" cy="135.5" r="15" fill="#F9CB70"/><ellipse cx="122" cy="131" rx="5.5" ry="3.6" transform="rotate(-30 122 131)" fill="#FFE6B0"/><circle cx="167.5" cy="135.5" r="15" fill="#F9CB70"/><ellipse cx="164" cy="131" rx="5.5" ry="3.6" transform="rotate(-30 164 131)" fill="#FFE6B0"/><circle cx="83.5" cy="175.5" r="15" fill="#F9CB70"/><ellipse cx="80" cy="171" rx="5.5" ry="3.6" transform="rotate(-30 80 171)" fill="#FFE6B0"/><circle cx="125.5" cy="175.5" r="15" fill="#F9CB70"/><ellipse cx="122" cy="171" rx="5.5" ry="3.6" transform="rotate(-30 122 171)" fill="#FFE6B0"/><circle cx="167.5" cy="175.5" r="15" fill="#F9CB70"/><ellipse cx="164" cy="171" rx="5.5" ry="3.6" transform="rotate(-30 164 171)" fill="#FFE6B0"/>
<path d="M52 150 L204 150 L188 214 Q182 222 174 222 L82 222 Q74 222 72 214 Z" fill="#D9B383" stroke="#1E3350" stroke-width="8"/>
<path d="M60 170 L196 170" stroke="#C49A66" stroke-width="5"/>
<path d="M92 190 L164 190 M102 204 L154 204" stroke="#E8C99E" stroke-width="5"/>
</g>

</g>
</svg>
