<svg xmlns="http://www.w3.org/2000/svg" viewBox="0 0 180 200"><g transform="translate(10 48)"><ellipse cx="80" cy="136" rx="54" ry="6" fill="#1E3350" opacity="0.1"/><rect x="18" y="58" width="124" height="76" rx="38" fill="#C98E5D" /><ellipse cx="80" cy="112" rx="34" ry="20" fill="#D8A474"/><rect x="46" y="126" width="22" height="12" rx="6" fill="#A9714A" /><rect x="92" y="126" width="22" height="12" rx="6" fill="#A9714A" /><circle cx="45" cy="30" r="10" fill="#A9714A"/><circle cx="45" cy="30" r="4.5" fill="#8C5A37"/><circle cx="115" cy="30" r="10" fill="#A9714A"/><circle cx="115" cy="30" r="4.5" fill="#8C5A37"/><rect x="30" y="22" width="100" height="76" rx="36" fill="#C98E5D" /><rect x="54" y="60" width="52" height="32" rx="16" fill="#B27B50" /><ellipse cx="72" cy="70" rx="2.8" ry="2.2" fill="#5B3A25"/><ellipse cx="88" cy="70" rx="2.8" ry="2.2" fill="#5B3A25"/><ellipse cx="45" cy="68" rx="6.5" ry="3.8" fill="#F29A86" opacity="0.5"/><ellipse cx="115" cy="68" rx="6.5" ry="3.8" fill="#F29A86" opacity="0.5"/><ellipse cx="60" cy="53" rx="3.8" ry="4.4" fill="#2A211C"/><circle cx="61.4" cy="51.4" r="1.3" fill="#FFFFFF"/><ellipse cx="100" cy="53" rx="3.8" ry="4.4" fill="#2A211C"/><circle cx="101.4" cy="51.4" r="1.3" fill="#FFFFFF"/><path d="M74 80 q6 4.5 12 0" stroke="#5B3A25" stroke-width="2.4" fill="none" stroke-linecap="round"/><g transform="translate(80 15)"><circle r="11" fill="#FFA940"/><circle cx="-4" cy="-3.5" r="3" fill="#FFD08A"/><path d="M0 -10 c1 -5 6 -7.5 11 -6.5 -1 5 -6 7.5 -11 6.5z" fill="#5DBB7F"/></g></g></svg>