<svg xmlns="http://www.w3.org/2000/svg" viewBox="0 0 180 200"><g transform="translate(10 48)"><ellipse cx="80" cy="136" rx="74" ry="6" fill="#1E3350" opacity="0.1"/><g transform="translate(80 138) scale(1.22 .52) translate(-80 -138)"><rect x="18" y="58" width="124" height="76" rx="38" fill="#C98E5D" /><ellipse cx="80" cy="112" rx="34" ry="20" fill="#D8A474"/><rect x="46" y="126" width="22" height="12" rx="6" fill="#A9714A" /><rect x="92" y="126" width="22" height="12" rx="6" fill="#A9714A" /></g><ellipse cx="34" cy="138" rx="30" ry="5.5" fill="#8EC9F5" opacity=".7"/><ellipse cx="28" cy="137.2" rx="12" ry="2" fill="#FFFFFF" opacity=".55"/><g transform="translate(-4 35) rotate(-14 80.0 98)"><circle cx="45" cy="30" r="10" fill="#A9714A"/><circle cx="45" cy="30" r="4.5" fill="#8C5A37"/><circle cx="115" cy="30" r="10" fill="#A9714A"/><circle cx="115" cy="30" r="4.5" fill="#8C5A37"/><rect x="30" y="22" width="100" height="76" rx="36" fill="#C98E5D" /><rect x="54" y="60" width="52" height="32" rx="16" fill="#B27B50" /><ellipse cx="72" cy="70" rx="2.8" ry="2.2" fill="#5B3A25"/><ellipse cx="88" cy="70" rx="2.8" ry="2.2" fill="#5B3A25"/><ellipse cx="45" cy="68" rx="6.5" ry="3.8" fill="#F29A86" opacity="0.35"/><ellipse cx="115" cy="68" rx="6.5" ry="3.8" fill="#F29A86" opacity="0.35"/><ellipse cx="60" cy="53" rx="5.51" ry="6.38" fill="#2A211C"/><path d="M53.49 54.595 A6.51 5.423 0 0 0 66.51 54.595 Z" fill="#8EC9F5" opacity=".95"/><path d="M56.9695 56.9556 q3.0305 1.7864000000000002 6.061 0" stroke="#FFFFFF" stroke-width="1.2" fill="none" stroke-linecap="round" opacity=".8"/><circle cx="61.7632" cy="50.5756" r="2.3142" fill="#FFFFFF"/><circle cx="57.6858" cy="52.8724" r="1.102" fill="#FFFFFF"/><path d="M53 43.62 Q60 42.62 66 38.62" stroke="#2A211C" stroke-width="2.4" fill="none" stroke-linecap="round" opacity=".8"/><ellipse cx="100" cy="53" rx="5.51" ry="6.38" fill="#2A211C"/><path d="M93.49 54.595 A6.51 5.423 0 0 0 106.51 54.595 Z" fill="#8EC9F5" opacity=".95"/><path d="M96.9695 56.9556 q3.0305 1.7864000000000002 6.061 0" stroke="#FFFFFF" stroke-width="1.2" fill="none" stroke-linecap="round" opacity=".8"/><circle cx="101.7632" cy="50.5756" r="2.3142" fill="#FFFFFF"/><circle cx="97.6858" cy="52.8724" r="1.102" fill="#FFFFFF"/><path d="M107 43.62 Q100 42.62 94 38.62" stroke="#2A211C" stroke-width="2.4" fill="none" stroke-linecap="round" opacity=".8"/><path d="M72 84 q2 -4 4.5 -2.5 q1.8 -2.6 3.5 -2.6 q1.7 0 3.5 2.6 q2.5 -1.5 4.5 2.5" stroke="#5B3A25" stroke-width="2.4" fill="none" stroke-linecap="round" stroke-linejoin="round"/><g transform="translate(80 15)"><circle r="11" fill="#FFA940"/><circle cx="-4" cy="-3.5" r="3" fill="#FFD08A"/><path d="M0 -10 c1 -5 6 -7.5 11 -6.5 -1 5 -6 7.5 -11 6.5z" fill="#5DBB7F"/></g><path d="M58 56.828 q-3 11 -1 22" stroke="#8EC9F5" stroke-width="5.5" fill="none" stroke-linecap="round"/><circle cx="57" cy="79.828" r="4.3" fill="#8EC9F5"/><path d="M102 56.828 q3 11 1 22" stroke="#8EC9F5" stroke-width="5.5" fill="none" stroke-linecap="round"/><circle cx="103" cy="79.828" r="4.3" fill="#8EC9F5"/><path  d="M25 61.519999999999996 C26.7 64.92 28.4 66.96 28.4 69 A3.4 3.4 0 1 1 21.6 69 C21.6 66.96 23.3 64.92 25 61.519999999999996Z" fill="#8EC9F5"/><path  d="M135 54.4 C136.5 57.4 138 59.2 138 61 A3 3 0 1 1 132 61 C132 59.2 133.5 57.4 135 54.4Z" fill="#8EC9F5"/><path  d="M29 81.72 C30.2 84.12 31.4 85.56 31.4 87 A2.4 2.4 0 1 1 26.6 87 C26.6 85.56 27.8 84.12 29 81.72Z" fill="#8EC9F5"/></g><g opacity="0.55"><circle cx="130.23529411764707" cy="59.23529411764706" r="2.2941176470588234" fill="#fff" stroke="#1E3350" stroke-opacity=".15" stroke-width="1.5"/><circle cx="134.8235294117647" cy="51.58823529411765" r="3.4411764705882355" fill="#fff" stroke="#1E3350" stroke-opacity=".15" stroke-width="1.5"/><circle cx="144" cy="34" r="13" fill="#fff" stroke="#1E3350" stroke-opacity=".15" stroke-width="1.5"/><g transform="translate(144 34) scale(0.9176470588235294)"><circle cx="0" cy="1.5" r="8" fill="#FFA940"/><circle cx="-2.6" cy="-1" r="1.8" fill="#FFD08A"/><path d="M0 -6.5 c.5 -3 3 -4.5 6 -4 -.5 3 -3 4.5 -6 4z" fill="#5DBB7F"/></g></g></g></svg>