<svg xmlns="http://www.w3.org/2000/svg" viewBox="0 0 180 200"><g transform="translate(10 48)"><ellipse cx="80" cy="136" rx="54" ry="6" fill="#1E3350" opacity="0.1"/><rect x="18" y="58" width="124" height="76" rx="38" fill="#C98E5D" /><ellipse cx="80" cy="112" rx="34" ry="20" fill="#D8A474"/><rect x="46" y="126" width="22" height="12" rx="6" fill="#A9714A" /><rect x="92" y="126" width="22" height="12" rx="6" fill="#A9714A" /><circle cx="45" cy="30" r="10" fill="#A9714A"/><circle cx="45" cy="30" r="4.5" fill="#8C5A37"/><circle cx="115" cy="30" r="10" fill="#A9714A"/><circle cx="115" cy="30" r="4.5" fill="#8C5A37"/><rect x="30" y="22" width="100" height="76" rx="36" fill="#C98E5D" /><rect x="54" y="60" width="52" height="32" rx="16" fill="#B27B50" /><ellipse cx="72" cy="70" rx="2.8" ry="2.2" fill="#5B3A25"/><ellipse cx="88" cy="70" rx="2.8" ry="2.2" fill="#5B3A25"/><ellipse cx="45" cy="68" rx="6.5" ry="3.8" fill="#F29A86" opacity="0.5"/><ellipse cx="115" cy="68" rx="6.5" ry="3.8" fill="#F29A86" opacity="0.5"/><ellipse cx="61.2" cy="51.6" rx="3.8" ry="4.4" fill="#2A211C"/><circle cx="62.6" cy="50.0" r="1.3" fill="#FFFFFF"/><ellipse cx="101.2" cy="51.6" rx="3.8" ry="4.4" fill="#2A211C"/><circle cx="102.60000000000001" cy="50.0" r="1.3" fill="#FFFFFF"/><ellipse cx="80" cy="81" rx="2.8" ry="3.4" fill="#5B3A25"/><g transform="translate(80 15)"><circle r="11" fill="#FFA940"/><circle cx="-4" cy="-3.5" r="3" fill="#FFD08A"/><path d="M0 -10 c1 -5 6 -7.5 11 -6.5 -1 5 -6 7.5 -11 6.5z" fill="#5DBB7F"/></g><g opacity="1"><circle cx="132.0" cy="42.0" r="3.0" fill="#fff" stroke="#1E3350" stroke-opacity=".15" stroke-width="1.5"/><circle cx="138.0" cy="32.0" r="4.5" fill="#fff" stroke="#1E3350" stroke-opacity=".15" stroke-width="1.5"/><circle cx="150" cy="9" r="17" fill="#fff" stroke="#1E3350" stroke-opacity=".15" stroke-width="1.5"/><g transform="translate(150 9) scale(1.2)"><circle cx="0" cy="1.5" r="8" fill="#FFA940"/><circle cx="-2.6" cy="-1" r="1.8" fill="#FFD08A"/><path d="M0 -6.5 c.5 -3 3 -4.5 6 -4 -.5 3 -3 4.5 -6 4z" fill="#5DBB7F"/></g></g></g></svg>