<svg xmlns="http://www.w3.org/2000/svg" viewBox="0 0 180 200"><g transform="translate(10 48)"><ellipse cx="80" cy="136" rx="74" ry="6" fill="#1E3350" opacity="0.1"/><g transform="translate(80 138) scale(1.22 .52) translate(-80 -138)"><path d="M134 116 q26 -2 22 -34" stroke="#A9B8CF" stroke-width="12" fill="none" stroke-linecap="round"/><path d="M155 90 q2 -5 0 -8" stroke="#8797B1" stroke-width="12" fill="none" stroke-linecap="round"/><rect x="18" y="58" width="124" height="76" rx="38" fill="#A9B8CF" /><ellipse cx="80" cy="112" rx="34" ry="20" fill="#E4EAF3"/><rect x="46" y="126" width="22" height="12" rx="6" fill="#8797B1" /><rect x="92" y="126" width="22" height="12" rx="6" fill="#8797B1" /></g><ellipse cx="34" cy="138" rx="30" ry="5.5" fill="#8EC9F5" opacity=".7"/><ellipse cx="28" cy="137.2" rx="12" ry="2" fill="#FFFFFF" opacity=".55"/><g transform="translate(-4 35) rotate(-14 80.0 98)"><path d="M34 42 L40 6 L70 28 Z" fill="#A9B8CF" stroke="#A9B8CF" stroke-width="8" stroke-linejoin="round"/><path d="M42 34 L45 16 L60 28 Z" fill="#F4B7C1" stroke="#F4B7C1" stroke-width="4" stroke-linejoin="round"/><path d="M126 42 L120 6 L90 28 Z" fill="#A9B8CF" stroke="#A9B8CF" stroke-width="8" stroke-linejoin="round"/><path d="M118 34 L115 16 L100 28 Z" fill="#F4B7C1" stroke="#F4B7C1" stroke-width="4" stroke-linejoin="round"/><rect x="30" y="22" width="100" height="76" rx="36" fill="#A9B8CF" /><rect x="70.5" y="24" width="5" height="13" rx="2.5" fill="#8797B1" /><rect x="77.5" y="22" width="5" height="16" rx="2.5" fill="#8797B1" /><rect x="84.5" y="24" width="5" height="13" rx="2.5" fill="#8797B1" /><path d="M76 64 h8 l-4 4.5z" fill="#EE8F9C" stroke="#EE8F9C" stroke-width="2.5" stroke-linejoin="round"/><ellipse cx="47" cy="70" rx="6.5" ry="3.8" fill="#F29A86" opacity="0.35"/><ellipse cx="113" cy="70" rx="6.5" ry="3.8" fill="#F29A86" opacity="0.35"/><ellipse cx="60" cy="53" rx="5.51" ry="6.38" fill="#2A211C"/><path d="M53.49 54.595 A6.51 5.423 0 0 0 66.51 54.595 Z" fill="#8EC9F5" opacity=".95"/><path d="M56.9695 56.9556 q3.0305 1.7864000000000002 6.061 0" stroke="#FFFFFF" stroke-width="1.2" fill="none" stroke-linecap="round" opacity=".8"/><circle cx="61.7632" cy="50.5756" r="2.3142" fill="#FFFFFF"/><circle cx="57.6858" cy="52.8724" r="1.102" fill="#FFFFFF"/><path d="M53 43.62 Q60 42.62 66 38.62" stroke="#2A211C" stroke-width="2.4" fill="none" stroke-linecap="round" opacity=".8"/><ellipse cx="100" cy="53" rx="5.51" ry="6.38" fill="#2A211C"/><path d="M93.49 54.595 A6.51 5.423 0 0 0 106.51 54.595 Z" fill="#8EC9F5" opacity=".95"/><path d="M96.9695 56.9556 q3.0305 1.7864000000000002 6.061 0" stroke="#FFFFFF" stroke-width="1.2" fill="none" stroke-linecap="round" opacity=".8"/><circle cx="101.7632" cy="50.5756" r="2.3142" fill="#FFFFFF"/><circle cx="97.6858" cy="52.8724" r="1.102" fill="#FFFFFF"/><path d="M107 43.62 Q100 42.62 94 38.62" stroke="#2A211C" stroke-width="2.4" fill="none" stroke-linecap="round" opacity=".8"/><path d="M72 76 q2 -4 4.5 -2.5 q1.8 -2.6 3.5 -2.6 q1.7 0 3.5 2.6 q2.5 -1.5 4.5 2.5" stroke="#5B3A25" stroke-width="2.4" fill="none" stroke-linecap="round" stroke-linejoin="round"/><g stroke="#1E3350" stroke-width="1.6" stroke-linecap="round" opacity=".45"><path d="M38 64 h-14"/><path d="M38 70 l-13 4"/><path d="M122 64 h14"/><path d="M122 70 l13 4"/></g><path d="M58 56.828 q-3 11 -1 22" stroke="#8EC9F5" stroke-width="5.5" fill="none" stroke-linecap="round"/><circle cx="57" cy="79.828" r="4.3" fill="#8EC9F5"/><path d="M102 56.828 q3 11 1 22" stroke="#8EC9F5" stroke-width="5.5" fill="none" stroke-linecap="round"/><circle cx="103" cy="79.828" r="4.3" fill="#8EC9F5"/><path  d="M25 61.519999999999996 C26.7 64.92 28.4 66.96 28.4 69 A3.4 3.4 0 1 1 21.6 69 C21.6 66.96 23.3 64.92 25 61.519999999999996Z" fill="#8EC9F5"/><path  d="M135 54.4 C136.5 57.4 138 59.2 138 61 A3 3 0 1 1 132 61 C132 59.2 133.5 57.4 135 54.4Z" fill="#8EC9F5"/><path  d="M29 81.72 C30.2 84.12 31.4 85.56 31.4 87 A2.4 2.4 0 1 1 26.6 87 C26.6 85.56 27.8 84.12 29 81.72Z" fill="#8EC9F5"/></g><g opacity="0.55"><circle cx="130.23529411764707" cy="59.23529411764706" r="2.2941176470588234" fill="#fff" stroke="#1E3350" stroke-opacity=".15" stroke-width="1.5"/><circle cx="134.8235294117647" cy="51.58823529411765" r="3.4411764705882355" fill="#fff" stroke="#1E3350" stroke-opacity=".15" stroke-width="1.5"/><circle cx="144" cy="34" r="13" fill="#fff" stroke="#1E3350" stroke-opacity=".15" stroke-width="1.5"/><g transform="translate(144 34) scale(0.9176470588235294)"><ellipse cx="-1.5" cy="0" rx="7.5" ry="5" fill="#7FB6E8"/><path d="M5 0 L10.5 -5 L10.5 5 Z" fill="#7FB6E8" stroke="#7FB6E8" stroke-width="2" stroke-linejoin="round"/><circle cx="-5" cy="-1" r="1.2" fill="#1E3350"/></g></g></g></svg>