<svg xmlns="http://www.w3.org/2000/svg" viewBox="0 0 180 200"><g transform="translate(10 48)"><ellipse cx="80" cy="136" rx="54" ry="6" fill="#1E3350" opacity="0.1"/><rect x="18" y="58" width="124" height="76" rx="38" fill="#FAF8F4" /><ellipse cx="30" cy="100" rx="13" ry="22" fill="#33404F" transform="rotate(12 30 100)"/><ellipse cx="130" cy="100" rx="13" ry="22" fill="#33404F" transform="rotate(-12 130 100)"/><rect x="46" y="126" width="22" height="12" rx="6" fill="#33404F" /><rect x="92" y="126" width="22" height="12" rx="6" fill="#33404F" /><circle cx="42" cy="30" r="13" fill="#33404F"/><circle cx="118" cy="30" r="13" fill="#33404F"/><rect x="30" y="22" width="100" height="76" rx="36" fill="#FAF8F4" /><ellipse cx="59" cy="55" rx="11" ry="14" fill="#33404F" transform="rotate(35 59 55)"/><ellipse cx="101" cy="55" rx="11" ry="14" fill="#33404F" transform="rotate(-35 101 55)"/><ellipse cx="80" cy="67" rx="5" ry="3.6" fill="#33404F"/><ellipse cx="42" cy="72" rx="6.5" ry="3.8" fill="#F29A86" opacity="0.75"/><ellipse cx="118" cy="72" rx="6.5" ry="3.8" fill="#F29A86" opacity="0.75"/><path d="M54.3 55.5 q5.699999999999999 -7.040000000000001 11.399999999999999 0" stroke="#FFFFFF" stroke-width="3.0" fill="none" stroke-linecap="round"/><path d="M94.3 55.5 q5.699999999999999 -7.040000000000001 11.399999999999999 0" stroke="#FFFFFF" stroke-width="3.0" fill="none" stroke-linecap="round"/><path d="M74 73 h12 a6 6 0 0 1 -12 0z" fill="#5B3A25"/><path d="M76.6 77.6 a3.4 2.4 0 0 1 6.8 0 a6 6 0 0 1 -6.8 0z" fill="#F08A8A"/><path  d="M14 23 C15.05 28.95 15.05 28.95 21 30 C15.05 31.05 15.05 31.05 14 37 C12.95 31.05 12.95 31.05 7 30 C12.95 28.95 12.95 28.95 14 23Z" fill="#FFB547"/><path  d="M150 39 C150.75 43.25 150.75 43.25 155 44 C150.75 44.75 150.75 44.75 150 49 C149.25 44.75 149.25 44.75 145 44 C149.25 43.25 149.25 43.25 150 39Z" fill="#FFB547"/></g></svg>